<?xml version="1.0" encoding="UTF-8"?>
<svg enable-background="new 0 0 258.768 412.745" viewBox="0 0 258.768 412.745" xmlns="http://www.w3.org/2000/svg">
 <path d="m138.42 300.4c-9.686 5.709-3.915 14.633-0.297 22.748l3.717-2.974c2.82 16.972 8.302 36.229 29.736 35.238 13.697-0.634 12.525-6.794 4.34-15.699-12.256-13.333-25.047-26.17-37.496-39.313"/>
 <path d="m138.42 300.4c-9.686 5.709-3.915 14.633-0.297 22.748l3.717-2.974c2.82 16.972 8.302 36.229 29.736 35.238 13.697-0.634 12.525-6.794 4.34-15.699-12.256-13.333-25.047-26.17-37.496-39.313" fill="none" stroke="#000" stroke-linecap="square" stroke-miterlimit="10" stroke-width=".7"/>
 <path d="m145.11 294.01c-14.81 6.345-3.974 15.665-0.744 25.425 4.437 13.407 2.771 28.417 20.072 32.265 15.104 3.358 25.729-3.399 18.139-18.437-2.895-5.734-6.188-8.508-12.117-10.483-10.962-3.653-21.565-18.406-25.35-28.77" fill="#bf0000"/>
 <path d="m145.11 294.01c-14.81 6.345-3.974 15.665-0.744 25.425 4.437 13.407 2.771 28.417 20.072 32.265 12.339 2.744 28.348-3.134 18.585-17.768-10.625-15.927-29.964-19.385-37.913-39.773" fill="none" stroke="#000" stroke-linecap="square" stroke-miterlimit="10" stroke-width=".7"/>
 <path d="m155.519,288.807c-20.211-7.642-13.633,33.424 5.501,35.015 6.861.57 17.629-.334 16.578-9.813-1.211-10.921-14.37-18.743-22.079-25.202" fill="#ff7f00"/>
 <path d="m155.519,288.807c-20.211-7.642-13.633,33.424 5.501,35.015 6.861.57 17.629-.334 16.578-9.813-1.211-10.921-14.37-18.743-22.079-25.202" fill="none" stroke="#000" stroke-linecap="square" stroke-miterlimit="10" stroke-width=".7"/>
 <path d="m183.769,85.11c19.353,1.966 38.791,5.707 57.694,10.243 6.529,1.567 12.398,1.572 15.457,7.451 2.923,5.619.839,17.567-.148,23.492-1.61,9.665-5.896,18.772-7.731,28.398-2.99,15.684-9.448,21.416-20.593,34.049-4.799,5.439-16.709,14.706-18.213,21.707-1.232,5.737 3.651,17.204 4.729,23.212 2.768,15.411 4.021,31.628.92,47.115-3.78,18.875-47.763,46.627-62.3,23.939-10.175-15.879 8.183-22.576 16.06-33.307 9.787-13.333-5.136-23.821-12.638-37.616-10.499,12.078-19.77,25.019-27.359,39.104-4.571,8.483-10.393,17.16-14.125,26.02-2.136,5.07-1.783,9.604-3.419,14.721-2.33,7.287-8.192,13.125-11.449,20.22-6.18,13.463-12.216,27.047-17.99,40.74l-38.513-37.369c-5.741-5.57-7.309-4.992-3.091-11.74 4.068-6.51 8.208-12.975 12.238-19.508 11.375-18.442 22.811-37.953 30.554-58.284 9.323-24.479 25.278-45.5 39.333-67.549l60.584-95.038" fill="#ffbf00"/>
 <path d="m183.769,85.11c19.353,1.966 38.791,5.707 57.694,10.243 6.529,1.567 12.398,1.572 15.457,7.451 2.923,5.619.839,17.567-.148,23.492-1.61,9.665-5.896,18.772-7.731,28.398-2.99,15.684-9.448,21.416-20.593,34.049-4.799,5.439-16.709,14.706-18.213,21.707-1.232,5.737 3.651,17.204 4.729,23.212 2.768,15.411 4.021,31.628.92,47.115-3.78,18.875-47.763,46.627-62.3,23.939-10.175-15.879 8.183-22.576 16.06-33.307 9.787-13.333-5.136-23.821-12.638-37.616-10.499,12.078-19.77,25.019-27.359,39.104-4.571,8.483-10.393,17.16-14.125,26.02-2.136,5.07-1.783,9.604-3.419,14.721-2.33,7.287-8.192,13.125-11.449,20.22-6.18,13.463-12.216,27.047-17.99,40.74l-38.513-37.369c-5.741-5.57-7.309-4.992-3.091-11.74 4.068-6.51 8.208-12.975 12.238-19.508 11.375-18.442 22.811-37.953 30.554-58.284 9.323-24.479 25.278-45.5 39.333-67.549l60.584-95.038" fill="none" stroke="#000" stroke-linecap="square" stroke-miterlimit="10" stroke-width=".7"/>
 <path d="m193.73 71.729c-0.991 14.224-1.982 28.448-2.974 42.672 8.523-8.838 19.077-15.554 29.068-22.6 17.284-12.19-15.946-17.107-26.094-20.072" fill="#f2c9c9"/>
 <path d="m193.73 71.729c-0.991 14.224-1.982 28.448-2.974 42.672 8.523-8.838 19.077-15.554 29.068-22.6 17.284-12.19-15.946-17.107-26.094-20.072" fill="none" stroke="#000" stroke-linecap="square" stroke-miterlimit="10" stroke-width=".7"/>
 <path d="m190.756,114.252c8.097-9.258 16.948-17.25 27.232-24.015 9.047-5.951 12.688-.777 11.277,9.147-.688,4.833-7.021,11.926-10.11,11.746-2.848-.166-4.677-5.967-7.657-5.279-7.262,1.675-14.688,4.754-20.742,8.401"/>
 <path d="m190.76 114.25c6.13-7.01 42.534-43.61 38.657-15.908-0.514 3.668-6.668 13.568-9.515 13.529-2.471-0.034-5.047-5.717-7.435-6.245-5.59-1.236-17.352 5.9-21.708 8.773" fill="none" stroke="#000" stroke-linecap="square" stroke-miterlimit="10" stroke-width=".7"/>
 <path d="m190.76 114.25c9.592-10.968 20.293-20.355 33.103-27.402 3.69-2.03 5.11 4.607 5.407 7.479 0.779 7.545-4.394 12.054-8.624 17.99-2.481-4.004-4.766-10.163-8.921-10.556-5.561-0.525-16.756 9.885-20.965 12.489" fill="#ff7f00"/>
 <path d="m190.76 114.25c9.592-10.968 20.293-20.355 33.103-27.402 3.69-2.03 5.11 4.607 5.407 7.479 0.779 7.545-4.394 12.054-8.624 17.99-2.481-4.004-4.766-10.163-8.921-10.556-5.512-0.521-16.624 9.676-20.965 12.638" fill="none" stroke="#000" stroke-linecap="square" stroke-miterlimit="10" stroke-width=".7"/>
 <path d="m217.816,36.64c-34.039,1.526-34.205,53.33.149,53.229s33.908-51.928-.149-53.229" fill="#f2c9c9"/>
 <path d="m217.816,36.64c-34.039,1.526-34.205,53.33.149,53.229 34.271-.101 33.941-51.709 0-53.229" fill="none" stroke="#000" stroke-linecap="square" stroke-miterlimit="10" stroke-width=".7"/>
 <path d="m198.34 45.561-3.123 3.866c2.096-6.865 4.13-19.996 9.218-25.127 6.469-6.523 21.142-5.738 29.291-5.353-11.669 8.825-23.718 18.5-35.386 26.614"/>
 <path d="m198.34 45.561-3.123 3.866c2.096-6.865 4.13-19.996 9.218-25.127 6.469-6.523 21.142-5.738 29.291-5.353l-35.386 26.763" fill="#8f0000" stroke="#000" stroke-linecap="square" stroke-miterlimit="10" stroke-width=".7"/>
 <path d="m198.34 45.561c4.844-9.962 6.938-17.46 17.098-22.154 15.853-7.324 23.914-3.705 34.494 9.516 4.334 5.414 4.256 23.642-4.014 27.209-3.94 1.7-19.415-5.645-23.739-6.895-7.915-2.288-16.399-4.512-23.839-7.676" fill="#bf0000"/>
 <path d="m198.34 45.561c4.091-8.414 6.522-17.924 15.611-21.559 15.76-6.304 23.707-6.443 34.791 7.434 4.835 6.053 6.987 23.695-2.676 28.399-7.329 3.568-39.38-11.019-47.727-14.125" fill="none" stroke="#000" stroke-linecap="square" stroke-miterlimit="10" stroke-width=".7"/>
 <path d="m198.34,45.561c5.709,12.231 8.754,10.512 21.261,11.896 6.971.771 12.415,2.676 17.991,7.062 1.599,1.257 9.446,10.189 11.002,9.441 4.788-2.302-3.028-19.963-5.5-22.229-13.109-12.014-29.152-10.182-44.754-6.17" fill="#bf0000"/>
 <path d="m198.34,45.561c5.709,12.231 8.754,10.512 21.261,11.896 6.557.725 11.526,2.41 16.951,6.244 1.222.863 10.713,10.923 11.597,10.557 4.83-2.001-2.041-19.189-4.163-21.708-11.229-13.331-30.921-11.373-45.646-6.839" fill="none" stroke="#000" stroke-linecap="square" stroke-miterlimit="10" stroke-width=".7"/>
 <path d="m233.87 106.67c-12.401 7.227-23.201 33.36-19.478 45.944 5.144-17.822 5.006-32.839 19.478-45.944"/>
 <path d="m213.95 149.94c-5.834 4.014-8.304 13.452-4.163 19.626 5.151 7.68 25.895 16.342 34.346 9.071 19.887-17.111-15.522-34.107-30.183-28.697" fill="#ff7f00"/>
 <path d="m213.95 149.94c-5.834 4.014-8.304 13.452-4.163 19.626 4.498 6.706 25.292 16.104 33.603 10.11 21.116-15.229-13.211-36.711-29.291-29.587" fill="none" stroke="#000" stroke-linecap="square" stroke-miterlimit="10" stroke-width=".7"/>
 <path d="m211.57 163.62c-3.558 6.522-5.582 13.279-7.582 20.37-1.006 3.567-5.286 11.922-4.461 15.464 1.3 5.577 12.274 10.124 17.694 13.677 5.21-8.216 21.591-23.555 21.855-33.899 0.3-11.702-17.946-20.098-27.506-15.612" fill="#f2c9c9"/>
 <path d="m211.57 163.62c-3.558 6.522-5.582 13.279-7.582 20.37-1.006 3.567-5.286 11.922-4.461 15.464 1.3 5.577 12.274 10.124 17.694 13.677 5.21-8.216 21.591-23.555 21.855-33.899 0.295-11.553-17.852-20.194-27.357-15.612" fill="none" stroke="#000" stroke-linecap="square" stroke-miterlimit="10" stroke-width=".7"/>
 <path d="m209.34 226.06c6.79 1.964 12.63-2.593 12.639-9.664 0.011-8.957-11.952-16.669-19.774-18.288-24.786-5.128 2.191 23 7.135 27.952" fill="#ff0"/>
 <path d="m209.34 226.06c6.79 1.964 12.63-2.593 12.639-9.664 0.011-9.149-11.086-15.222-18.511-17.842-7.51-2.649-12.571-1.369-11.598 7.36 0.809 7.242 12.569 15.45 17.619 20.146" fill="none" stroke="#000" stroke-linecap="square" stroke-miterlimit="10" stroke-width=".7"/>
 <path d="m54.414 250.15c-14.621-16.455-29.241-32.909-43.861-49.364 62.695-1.685 125.39-3.37 188.08-5.054l-12.64 48.032c-1.694 6.438-22.29 3.404-28.039 3.562l-103.54 2.824" fill="#5a3d1c"/>
 <path d="m54.414 250.15c-14.621-16.455-29.241-32.909-43.861-49.364 62.695-1.685 125.39-3.37 188.08-5.054l-12.64 48.032c-1.694 6.438-22.29 3.404-28.039 3.562l-103.54 2.824" fill="none" stroke="#000" stroke-linecap="square" stroke-miterlimit="10" stroke-width=".7"/>
 <path d="m198.64 195.58-3.717-195.22c-18.264 0.562-173.75 1.482-174.04 6.958-3.441 64.489-6.881 128.98-10.322 193.47 62.28-1.674 126.3 0.439 188.08-5.203" fill="#9e6c31"/>
 <path d="m198.64 195.58-3.717-195.22c-18.264 0.562-173.75 1.482-174.04 6.958-3.441 64.489-6.881 128.98-10.322 193.47 62.695-1.685 125.39-3.37 188.08-5.054" fill="none" stroke="#000" stroke-linecap="square" stroke-miterlimit="10" stroke-width=".7"/>
 <path d="m129.2 248.07-9.409-42.277c-1.43-6.428-0.082-7.875-6.656-7.693l-21.999 0.608 15.497 40.053c4.916 12.703 8.682 10.568 22.567 9.309" fill="#b3b3b3"/>
 <path d="m91.138,186.215v12.49l21.999-.608c7.89-.218 5.042-5.633 5.211-12.923l-27.21,1.041" fill="#fff"/>
 <path d="m118.05,197.813 .297-12.638c-4.698.18-24.342-2.039-27.21,1.041-3.996,4.29 2.143,18.029 3.832,22.394l13.66,35.306c3.201,8.272 12.362,4.497 20.571,4.302-3.725-16.797-7.619-33.574-11.15-50.405" fill="#d59758"/>
 <path d="m118.05,197.813 .297-12.638c-4.698.18-24.342-2.039-27.21,1.041-3.996,4.29 2.143,18.029 3.832,22.394l13.66,35.306c3.201,8.272 12.362,4.497 20.571,4.302l-11.151-50.255" fill="none" stroke="#000" stroke-linecap="square" stroke-miterlimit="10" stroke-width=".7"/>
 <path d="m105.858,204.355c3.788,12.384 6.571,27.085 12.042,38.36-.035.151.896-.581.744-.596-2.022-6.008-9.327-38.347-12.786-37.764"/>
 <path d="m95.598 199c45.882-0.688 0.104-2.323 0 0"/>
 <path d="m123.552,14.784v-12.341l-22.484.729c-7.965.259-4.961,5.283-4.874,12.652 9.041-.295 18.59-.302 27.358-1.04" fill="#d59758"/>
 <path d="m123.552,14.784v-12.341l-22.484.729c-7.965.259-4.961,5.283-4.874,12.652l27.358-.892" fill="none" stroke="#000" stroke-linecap="square" stroke-miterlimit="10" stroke-width=".7"/>
 <path d="m166.223,202.273c-3.364,7.318 7.689,11.096 13.531,11.598-8.754.773-21.654.241-28.846,6.097-.768.625-5.352,8.017-5.352,8.027 .142,3.285.298,2.977 2.974,5.651 5.934,5.931 29.067,5.495 37.319,4.98 14.546-.907 35.959-15.261 19.774-28.324-10.569-8.531-26.546-6.714-39.4-8.029" fill="#ff0"/>
 <path d="m166.223,202.273c-3.364,7.318 7.689,11.096 13.531,11.598-8.754.773-21.654.241-28.846,6.097-.768.625-5.352,8.017-5.352,8.027 .142,3.285.298,2.977 2.974,5.651 5.934,5.931 29.067,5.495 37.319,4.98 14.546-.907 35.959-15.261 19.774-28.324-10.604-8.559-26.385-6.604-39.251-8.029" fill="none" stroke="#000" stroke-linecap="square" stroke-miterlimit="10" stroke-width=".7"/>
 <path d="m188.08,223.982c5.783-3.118 11.64-6.303 17.396-9.368v-.297c-.134-.064-.183-.163-.148-.297-4.629,2.005-15.648,6.958-17.248,9.962"/>
 <path d="m190.607,230.225c5.969-4.277 11.95-8.694 17.99-12.786 .015.001-.021-.425 0-.445-4.037,1.615-17.875,10.974-17.99,13.231"/>
 <path d="m197.446,231.416c3.734-3.087 7.509-6.297 11.301-9.218 .025-.003-.026-.42 0-.446-.149.05-.199,0-.149-.149-3.199,2.133-10.933,8.527-11.152,9.813"/>
 <path d="m182.578,225.319c-10.728-2.221-22.409-.021-33.305-.445 6.082,4.139 24.244.899 33.305.445"/>
 <path d="m176.19 232.75c-6.974-0.681-22.659-1.815-27.508 1.637 9.127-0.481 18.804-1.057 27.508-1.637"/>
 <path d="m180.795,236.172c-3.986-.451-8.945-.516-11.151,1.339 3.683-.185 7.764-.633 11.151-1.339"/>
 <path d="m16.795 207.78c-9.951 10.025 2.348 22.271 9.369 27.506 10.061 7.501 12.545 9.146 24.533 5.502 8.374-2.545 15.208-5.458 9.217-13.827-2.596-3.626-9.709-6.774-14.125-7.509-14.062-2.341-19.039-0.652-28.994-11.672" fill="#ff0"/>
 <path d="m16.795 207.78c-9.951 10.025 2.348 22.271 9.369 27.506 10.061 7.501 12.545 9.146 24.533 5.502 8.374-2.545 15.208-5.458 9.217-13.827-2.596-3.626-9.709-6.774-14.125-7.509-14.062-2.341-19.039-0.652-28.994-11.672" fill="none" stroke="#000" stroke-linecap="square" stroke-miterlimit="10" stroke-width=".7"/>
 <path d="m18.58 215.51c2.103 1.023 4.077 1.91 6.542 2.081-1.209-1.364-3.761-1.751-6.542-2.081"/>
 <path d="m21.406 226.81c6.211 1.89 36.419 4.627 34.94-1.933-1.203 4.383-28.642 3.27-34.94 1.933"/>
 <path d="m28.988 233.35c9.473 3.057 23.011 3.613 32.413 0-9.38-1.403-21.823 2.366-32.413 0"/>
 <path d="m31.516,238.701c5.013,2.461 16.081,3.64 19.627,1.041-6.521.135-13.321-.054-19.627-1.041"/>
 <path d="m73.295 391.84c5.112-5.291 14.403-11.952 11.969-20.072-3.966-13.233-15.335-24.859-25.647-33.455-2.201-1.834-27.321-13.055-22.304-4.907l35.982 58.434" fill="#ff7f00"/>
 <path d="m73.295 391.84c5.112-5.291 14.403-11.952 11.969-20.072-3.966-13.233-15.335-24.859-25.647-33.455-2.201-1.834-27.321-13.055-22.304-4.907l35.982 58.434" fill="none" stroke="#000" stroke-linecap="square" stroke-miterlimit="10" stroke-width=".7"/>
 <path d="m40.585 329.84c13.396 15.991 43.632 47.107 33.38 69.659-4.825 10.612-19.101-19.579-21.485-24.606-6.455-13.608-13.111-29.712-11.895-45.053" fill="#bf0000"/>
 <path d="m40.585 329.84c10.375 12.384 46.825 50.959 33.751 68.842-7.504 10.266-17.517-15.111-21.229-22.534-6.847-13.69-13.766-30.585-12.522-46.158" fill="none" stroke="#000" stroke-linecap="square" stroke-miterlimit="10" stroke-width=".7"/>
 <path d="m70.025 408.2c3.322-10.03-3.978-16.875-9.219-24.532-3.879 8.792 4.953 17.462 9.219 24.532"/>
 <path d="m70.025 408.2c3.322-10.03-3.978-16.875-9.219-24.532-3.879 8.792 4.953 17.462 9.219 24.532" fill="none" stroke="#000" stroke-linecap="square" stroke-miterlimit="10" stroke-width=".7"/>
 <path d="m59.618 390.8-27.061 4.758c5.05 10.504 16.426 18.582 28.25 16.505 15.821-2.779 5.89-12.984-1.189-21.263" fill="#bbbb78"/>
 <path d="m59.618 390.8-27.061 4.758c5.05 10.504 16.426 18.582 28.25 16.505 15.595-2.739 6.236-12.962-1.189-21.113" fill="none" stroke="#000" stroke-linecap="square" stroke-miterlimit="10" stroke-width=".7"/>
 <path d="m32.407 395.56c3.231-10.896 19.177-9.971 28.399-11.895 1.755 12.13-20.024 10.541-28.399 11.895" fill="#bbbb78"/>
 <path d="m32.407 395.56c3.231-10.896 19.177-9.971 28.399-11.895 1.755 12.137-19.891 10.471-28.25 11.895" fill="none" stroke="#000" stroke-linecap="square" stroke-miterlimit="10" stroke-width=".7"/>
 <path d="m55.9 369.99c-4.928-16.507-10.176-37.232-21.559-50.552-5.955-6.968-20.919-17.208-28.919-6.913-9.818 12.633-3.509 38.799 3.196 51.222 4.965 9.199 6.897 14.421 17.991 14.421 9.537 0 22.486-0.675 29.291-8.178" fill="#bbbb78"/>
 <path d="m55.9 369.99c-4.928-16.507-10.176-37.232-21.559-50.552-5.955-6.968-20.919-17.208-28.919-6.913-9.818 12.633-3.509 38.799 3.196 51.222 4.56 8.447 6.187 13.136 15.761 14.421 9.647 1.295 24.45-0.865 31.521-8.028" fill="none" stroke="#000" stroke-linecap="square" stroke-miterlimit="10" stroke-width=".7"/>
 <path d="m60.657 383.67-4.757-13.53c-11.958 4.619-26.062 6.504-38.807 7.137 5.156 2.674 10.507 6.803 15.91 8.773 8.806 3.212 18.247-0.313 27.654-2.38" fill="#bbbb78"/>
 <path d="m60.657,383.667-4.757-13.53c-11.958,4.619-26.062,6.504-38.807,7.137 4.93,2.556 9.997,5.076 14.72,8.03 8.864,5.542 18.774.495 28.993-1.637" fill="none" stroke="#000" stroke-linecap="square" stroke-miterlimit="10" stroke-width=".7"/>
 <path d="m55.9 369.99c-5.161-17.286-10.643-39.751-23.789-52.782-6.357-6.302-24.208-15.481-28.251-1.338-5.375 18.804-2.458 41.229 9.961 56.798 4.44 5.566 9.078 7.606 15.464 11.151 11.217 6.227 18.353 2.598 31.521-0.149l-4.906-13.53" fill="none" stroke="#000" stroke-linecap="square" stroke-miterlimit="10" stroke-width=".7"/>
 <path d="m106.9 291.19c-2.712 8.865-7.376 28.389-3.867 35.833 1.031-11.959 2.291-24.143 3.867-35.833"/>
 <path d="m114.93 262.94c-3.235 9.604-5.721 32.511-1.487 40.294 0-13.28-0.78-27.191 1.487-40.294"/>
 <path d="m187.78 280.78c-6.944-2.156-10.471-9.335-12.34-15.908-1.777 5.788 5.564 15.043 12.34 15.908"/>
 <path d="m171.58 284.2c-0.733-2.96-2.214-7.158-3.123-8.772-0.075 3.265 1.024 6.42 3.123 8.772"/>
</svg>
